<svg width="27" height="20" viewBox="0 0 27 20" fill="none" xmlns="http://www.w3.org/2000/svg">
<g clip-path="url(#clip0_1695_62)">
<path d="M2.3075 13.575C2.4175 13.6012 2.56688 13.7369 2.61 13.8606L2.82875 14.3881C2.87813 14.4894 2.86875 14.69 2.81 14.7862L1.93687 16.2137C1.75 16.52 1.78875 16.9537 2.04 17.235L2.77938 17.9737C3.03688 18.2025 3.49125 18.2437 3.7875 18.0644L5.215 17.1912C5.30437 17.1362 5.49625 17.1169 5.63062 17.18L6.1575 17.3975C6.26375 17.4344 6.39938 17.5831 6.42563 17.6931L6.8175 19.3206C6.90062 19.6656 7.23 19.9494 7.58375 19.9819C7.58375 19.9819 7.80063 20.0019 8.12563 20.0019C8.45063 20.0019 8.6675 19.9819 8.66813 19.9819C8.8472 19.9607 9.01584 19.8865 9.1523 19.7686C9.28876 19.6507 9.38679 19.4947 9.43375 19.3206L9.82625 17.6931C9.8525 17.5837 9.9875 17.4344 10.1112 17.3912L10.6387 17.1725C10.7319 17.1269 10.9475 17.1362 11.0369 17.1912L12.4644 18.0644C12.59 18.1412 12.74 18.1819 12.8994 18.1819C13.115 18.1819 13.3237 18.1062 13.4856 17.9619L14.2244 17.2225C14.3415 17.0843 14.4131 16.9132 14.4293 16.7328C14.4455 16.5523 14.4056 16.3713 14.315 16.2144L13.4419 14.7869C13.3831 14.6906 13.3738 14.49 13.4306 14.3712L13.6481 13.8444C13.685 13.7381 13.8337 13.6025 13.9437 13.5762L15.5712 13.1844C15.7453 13.1372 15.9014 13.0391 16.0192 12.9025C16.137 12.7659 16.2113 12.5972 16.2325 12.4181C16.2325 12.4181 16.2525 12.2012 16.2525 11.8762C16.2525 11.5512 16.2325 11.3344 16.2325 11.3337C16.2112 11.1547 16.1369 10.986 16.0191 10.8495C15.9013 10.7129 15.7453 10.6147 15.5712 10.5675L13.9444 10.1762C13.8344 10.15 13.685 10.0144 13.6419 9.89062L13.4231 9.36312C13.3737 9.26187 13.3831 9.06125 13.4419 8.965L14.315 7.5375C14.5019 7.23125 14.4631 6.7975 14.2119 6.51625L13.4725 5.7775C13.2144 5.54813 12.7594 5.50687 12.4644 5.68687L11.0369 6.56C10.9475 6.61437 10.755 6.635 10.6212 6.57125L10.0944 6.35375C9.98812 6.31687 9.85312 6.16812 9.82687 6.05812L9.43438 4.43063C9.38722 4.25652 9.28905 4.10052 9.1525 3.98267C9.01594 3.86483 8.84725 3.79055 8.66813 3.76938C8.66688 3.77 8.45 3.75 8.125 3.75C7.8 3.75 7.58312 3.77 7.5825 3.77C7.4034 3.79125 7.23475 3.86557 7.09821 3.9834C6.96167 4.10123 6.86348 4.25719 6.81625 4.43125L6.425 6.0575C6.39875 6.1675 6.26312 6.31687 6.13937 6.36L5.61188 6.57875C5.51813 6.62437 5.30313 6.61437 5.21375 6.56L3.78688 5.68687C3.49125 5.50687 3.04625 5.53812 2.76563 5.78937L2.02688 6.52875C1.90976 6.66698 1.8382 6.83802 1.82198 7.01847C1.80575 7.19892 1.84566 7.37997 1.93625 7.53687L2.80937 8.96437C2.86812 9.06062 2.8775 9.26125 2.82063 9.38L2.60312 9.90687C2.56625 10.0131 2.4175 10.1487 2.3075 10.175L0.68 10.5669C0.5059 10.614 0.349892 10.7122 0.232049 10.8488C0.114206 10.9853 0.0399204 11.154 0.01875 11.3331C0.02 11.3331 0 11.55 0 11.875C0 12.2 0.02 12.4169 0.02 12.4175C0.0412518 12.5966 0.115566 12.7652 0.233397 12.9018C0.351227 13.0383 0.50719 13.1365 0.68125 13.1837L2.3075 13.575ZM0.625 11.875C0.625 11.5887 0.641875 11.3956 0.6425 11.3894C0.652458 11.3407 0.674681 11.2955 0.707059 11.2578C0.739438 11.2202 0.780897 11.1915 0.8275 11.1744L2.455 10.7825C2.77062 10.7062 3.08875 10.4175 3.1875 10.1281L3.39 9.63625C3.5325 9.34437 3.5125 8.91562 3.34312 8.63812L2.47 7.21125C2.42812 7.14187 2.44 7.00437 2.48125 6.9575L3.19438 6.24375C3.25125 6.19312 3.39625 6.18062 3.46125 6.22L4.88875 7.09312C5.15938 7.25875 5.62313 7.27 5.86875 7.14812L6.36125 6.94437C6.66813 6.83875 6.95688 6.52062 7.03313 6.20437L7.42437 4.5775C7.44134 4.53075 7.47001 4.48913 7.50765 4.45663C7.5453 4.42413 7.59065 4.40183 7.63937 4.39187C7.64562 4.39187 7.83875 4.375 8.125 4.375C8.41125 4.375 8.60438 4.39187 8.61063 4.3925C8.65926 4.40246 8.70454 4.42468 8.74217 4.45706C8.7798 4.48944 8.80852 4.5309 8.82563 4.5775L9.2175 6.20437C9.29375 6.52 9.58188 6.83875 9.87188 6.9375L10.3638 7.14C10.6494 7.28 11.0919 7.25812 11.3619 7.09312L12.7887 6.22C12.8537 6.18062 13.0075 6.20125 13.0425 6.23125L13.7563 6.94437C13.81 7.005 13.8219 7.14187 13.78 7.21125L12.9069 8.63875C12.7375 8.91562 12.7175 9.345 12.8519 9.61875L13.0556 10.1112C13.1612 10.4181 13.4794 10.7069 13.7956 10.7831L15.4225 11.1744C15.4693 11.1913 15.5109 11.22 15.5434 11.2577C15.5759 11.2953 15.5982 11.3406 15.6081 11.3894C15.6081 11.3956 15.625 11.5887 15.625 11.875C15.625 12.1612 15.6081 12.3544 15.6075 12.3606C15.5975 12.4093 15.5753 12.4545 15.5429 12.4922C15.5106 12.5298 15.4691 12.5585 15.4225 12.5756L13.795 12.9675C13.4794 13.0437 13.1612 13.3325 13.0625 13.6219L12.86 14.1137C12.7175 14.4056 12.7375 14.8344 12.9069 15.1119L13.78 16.5387C13.8219 16.6081 13.81 16.7456 13.7688 16.7925L13.0556 17.5062C13.0104 17.54 12.9551 17.5574 12.8988 17.5556C12.8607 17.5569 12.8229 17.548 12.7894 17.53L11.3619 16.6569C11.0919 16.4919 10.6281 16.48 10.3819 16.6019L9.88937 16.8056C9.5825 16.9112 9.29375 17.23 9.21812 17.5456L8.82625 19.1725C8.80929 19.2192 8.78062 19.2609 8.74297 19.2934C8.70533 19.3259 8.65997 19.3482 8.61125 19.3581C8.60437 19.3581 8.41125 19.375 8.125 19.375C7.83875 19.375 7.64562 19.3581 7.63937 19.3575C7.59074 19.3475 7.54546 19.3253 7.50783 19.2929C7.4702 19.2606 7.44148 19.2191 7.42437 19.1725L7.0325 17.545C6.95625 17.2294 6.6675 16.9112 6.37812 16.8125L5.88625 16.61C5.74638 16.545 5.5936 16.5125 5.43938 16.515C5.23375 16.515 5.03813 16.5656 4.88813 16.6575L3.46125 17.5306C3.39625 17.57 3.24187 17.5487 3.2075 17.5194L2.49375 16.8056C2.44 16.745 2.42812 16.6081 2.47 16.5387L3.34312 15.1112C3.5125 14.8344 3.5325 14.405 3.39812 14.1312L3.19438 13.6387C3.08875 13.3319 2.77063 13.0431 2.45438 12.9669L0.8275 12.5756C0.780749 12.5587 0.739132 12.53 0.706632 12.4923C0.674132 12.4547 0.651835 12.4093 0.641875 12.3606C0.641875 12.3544 0.625 12.1612 0.625 11.875Z" fill="#F7931E"/>
<path d="M8.125 15.3126C10.0206 15.3126 11.5625 13.7707 11.5625 11.8751C11.5625 9.97949 10.0206 8.43762 8.125 8.43762C6.22938 8.43762 4.6875 9.97949 4.6875 11.8751C4.6875 13.7707 6.22938 15.3126 8.125 15.3126ZM8.125 9.06262C9.67562 9.06262 10.9375 10.3245 10.9375 11.8751C10.9375 13.4257 9.67562 14.6876 8.125 14.6876C6.57438 14.6876 5.3125 13.4257 5.3125 11.8751C5.3125 10.3245 6.57438 9.06262 8.125 9.06262ZM17.1731 3.32137C17.1312 3.36847 17.0738 3.39905 17.0113 3.40762L15.8481 3.39637C15.7046 3.40018 15.5654 3.44652 15.4482 3.52953C15.3311 3.61253 15.2412 3.72846 15.19 3.86262C15.19 3.86262 15.1387 4.00824 15.0825 4.23137C15.0262 4.45449 15.0025 4.60699 15.0025 4.60699C14.9587 4.88887 15.1156 5.20074 15.3675 5.33262L16.3931 5.87012C16.4481 5.91177 16.4852 5.97277 16.4969 6.04074L16.555 6.43762C16.5587 6.50032 16.5401 6.5623 16.5025 6.61262L15.6763 7.42262C15.4694 7.62512 15.415 7.97137 15.5575 8.24324L15.9319 8.86824C16.09 9.10074 16.4325 9.21949 16.7013 9.13574L17.8412 8.78699C17.9031 8.78699 17.965 8.81074 18 8.83887L18.3219 9.07637C18.3687 9.11854 18.3992 9.17584 18.4081 9.23824L18.3969 10.3957C18.3944 10.6807 18.5944 10.9664 18.8631 11.0601C18.8631 11.0601 19.0087 11.1114 19.2319 11.1676C19.455 11.2239 19.6075 11.2476 19.6075 11.2476C19.6237 11.2501 19.6887 11.2551 19.705 11.2551C19.8332 11.2535 19.9586 11.2183 20.0689 11.1529C20.1791 11.0875 20.2703 10.9943 20.3331 10.8826L20.8706 9.85699C20.9123 9.80202 20.9733 9.76493 21.0413 9.75324L21.4556 9.69324C21.5181 9.69324 21.5919 9.72574 21.6125 9.74699L22.4225 10.5732C22.6194 10.7745 22.9512 10.8464 23.2431 10.692L23.8675 10.3176C24.1062 10.1551 24.2219 9.82387 24.1356 9.54824L23.7906 8.44387C23.7814 8.37522 23.7989 8.30566 23.8394 8.24949L24.0769 7.92762C24.1188 7.88052 24.1762 7.84993 24.2388 7.84137L25.4019 7.85262C25.5454 7.84881 25.6846 7.80246 25.8018 7.71946C25.9189 7.63645 26.0088 7.52052 26.06 7.38637C26.06 7.38637 26.1113 7.24074 26.1675 7.01762C26.2238 6.79449 26.2475 6.64199 26.2475 6.64199C26.2661 6.49842 26.2412 6.35259 26.1762 6.22327C26.1111 6.09394 26.0088 5.98705 25.8825 5.91637L24.8569 5.37887C24.8019 5.33721 24.7648 5.27622 24.7531 5.20824L24.6956 4.81262C24.6919 4.74992 24.7105 4.68793 24.7481 4.63762L25.5744 3.82762C25.7812 3.62512 25.8356 3.27887 25.6931 3.00699L25.3187 2.38199C25.1606 2.15012 24.8187 2.03012 24.5494 2.11387L23.4087 2.46262C23.3517 2.46254 23.2961 2.44438 23.25 2.41074L22.9281 2.17324C22.8813 2.13107 22.8508 2.07377 22.8419 2.01137L22.8531 0.853867C22.8507 0.70921 22.805 0.568595 22.7219 0.45017C22.6388 0.331745 22.5221 0.240946 22.3869 0.189492C22.3869 0.189492 22.2413 0.138242 22.0181 0.0819922C21.795 0.0257422 21.6425 0.00199219 21.6425 0.00199219C21.6101 -0.00123178 21.5776 -0.00352439 21.545 -0.00488281C21.4168 -0.00328644 21.2914 0.031967 21.1811 0.0973443C21.0709 0.162722 20.9797 0.255926 20.9169 0.367617L20.3794 1.39324C20.3377 1.44822 20.2767 1.4853 20.2087 1.49699L19.7944 1.55637C19.7378 1.55514 19.683 1.53636 19.6375 1.50262L18.8275 0.676367C18.7216 0.57103 18.5846 0.502597 18.4368 0.481209C18.289 0.45982 18.1383 0.486613 18.0069 0.557617L17.3819 0.931367C17.1431 1.09387 17.0275 1.42512 17.1137 1.70074L17.4588 2.80512C17.468 2.87376 17.4505 2.94333 17.41 2.99949L17.1731 3.32137ZM17.6856 3.67887L17.9 3.38762C18.0675 3.18949 18.1325 2.86637 18.055 2.61949L17.7106 1.51574C17.7075 1.49824 17.7213 1.45887 17.7181 1.45824L18.3106 1.10324L18.3812 1.11387L19.1919 1.94012C19.3356 2.08637 19.5725 2.18137 19.795 2.18137C19.8378 2.18204 19.8806 2.17806 19.9225 2.16949L20.2819 2.11637C20.4169 2.09999 20.5461 2.05223 20.6593 1.97691C20.7725 1.90159 20.8665 1.8008 20.9337 1.68262L21.4706 0.657617C21.49 0.635942 21.5167 0.622331 21.5456 0.619492C21.5525 0.620117 21.68 0.641367 21.8663 0.687617C22.0519 0.734492 22.1744 0.776367 22.18 0.778867C22.1994 0.786992 22.2275 0.827617 22.2288 0.847617L22.2175 2.00512C22.215 2.26387 22.3706 2.55449 22.5719 2.68574L22.8625 2.90012C23.0556 3.06324 23.3869 3.13199 23.6306 3.05512L24.7394 2.71012C24.7656 2.71012 24.795 2.72637 24.7913 2.71824L25.1463 3.31074C25.1531 3.32699 25.1462 3.36824 25.1356 3.38137L24.3094 4.19199C24.125 4.37387 24.0294 4.68887 24.08 4.92262L24.1325 5.28199C24.155 5.53949 24.3375 5.81387 24.5669 5.93387L25.5919 6.47074C25.6134 6.49022 25.6269 6.51691 25.63 6.54574C25.6117 6.6535 25.589 6.76047 25.5619 6.86637C25.536 6.97221 25.5055 7.07689 25.4706 7.18012C25.4625 7.19949 25.4219 7.22762 25.4019 7.22887L24.2381 7.21762C23.9812 7.21762 23.6937 7.37324 23.5637 7.57199L23.35 7.86262C23.2656 7.96946 23.2076 8.09469 23.1807 8.22815C23.1537 8.36161 23.1587 8.49954 23.195 8.63074L23.5394 9.73449C23.5425 9.75137 23.5288 9.79137 23.5319 9.79199L22.9394 10.147L22.8688 10.1364L22.0581 9.31012C21.9144 9.16387 21.6775 9.06887 21.455 9.06887C21.4122 9.06819 21.3694 9.07218 21.3275 9.08074L20.9681 9.13387C20.8331 9.15024 20.7039 9.198 20.5907 9.27333C20.4775 9.34865 20.3835 9.44944 20.3163 9.56762L19.7794 10.5926C19.76 10.6143 19.7333 10.6279 19.7044 10.6307C19.5966 10.6124 19.4897 10.5897 19.3837 10.5626C19.2779 10.5367 19.1732 10.5063 19.07 10.4714C19.0506 10.4632 19.0225 10.4226 19.0213 10.4026L19.0325 9.24512C19.035 8.98637 18.8794 8.69574 18.6781 8.56449L18.3875 8.35012C18.2806 8.26568 18.1552 8.20765 18.0217 8.18072C17.8881 8.15379 17.7501 8.15872 17.6188 8.19512L16.51 8.54012C16.4831 8.54012 16.4538 8.52574 16.4581 8.53199L16.1031 7.93949C16.0962 7.92324 16.1031 7.88199 16.1137 7.86887L16.94 7.05824C17.1244 6.87637 17.22 6.56137 17.1694 6.32762L17.1169 5.96887C17.1005 5.83381 17.0526 5.70449 16.9772 5.59128C16.9018 5.47806 16.8008 5.38412 16.6825 5.31699L15.6575 4.78012C15.636 4.76064 15.6224 4.73395 15.6194 4.70512C15.62 4.69824 15.6413 4.57074 15.6875 4.38449C15.7344 4.19887 15.7763 4.07637 15.7788 4.07074C15.7869 4.05137 15.8275 4.02324 15.8475 4.02199L17.0113 4.03324C17.2681 4.03324 17.5556 3.87762 17.6856 3.67887Z" fill="#F7931E"/>
<path d="M20.625 7.5C21.6588 7.5 22.5 6.65875 22.5 5.625C22.5 4.59125 21.6588 3.75 20.625 3.75C19.5912 3.75 18.75 4.59125 18.75 5.625C18.75 6.65875 19.5912 7.5 20.625 7.5ZM20.625 4.375C21.3144 4.375 21.875 4.93562 21.875 5.625C21.875 6.31438 21.3144 6.875 20.625 6.875C19.9356 6.875 19.375 6.31438 19.375 5.625C19.375 4.93562 19.9356 4.375 20.625 4.375Z" fill="#F7931E"/>
</g>
<defs>
<clipPath id="clip0_1695_62">
<rect width="26.25" height="20" fill="white"/>
</clipPath>
</defs>
</svg>
