<svg width="20" height="20" viewBox="0 0 20 20" fill="none" xmlns="http://www.w3.org/2000/svg">
<g clip-path="url(#clip0_1695_58)">
<path d="M10.0572 9.94282L0.714355 19.2857M18.0572 2.67139L16.8572 6.21425C16.8158 6.29619 16.7942 6.38672 16.7942 6.47854C16.7942 6.57035 16.8158 6.66088 16.8572 6.74282L19.1001 9.74282C19.1645 9.82869 19.2035 9.93098 19.2125 10.038C19.2215 10.145 19.2002 10.2523 19.151 10.3477C19.1017 10.4432 19.0267 10.5228 18.9343 10.5775C18.8419 10.6322 18.736 10.6598 18.6286 10.6571H14.8858C14.7941 10.6598 14.7041 10.683 14.6225 10.725C14.5409 10.7671 14.4698 10.8268 14.4144 10.9L12.3286 13.9C12.2675 13.9877 12.1829 14.0564 12.0846 14.0985C11.9863 14.1405 11.8782 14.1541 11.7725 14.1377C11.6668 14.1214 11.5679 14.0757 11.4869 14.0059C11.4059 13.936 11.3461 13.8449 11.3144 13.7428L10.2001 10.1714C10.1746 10.0831 10.1272 10.0027 10.0623 9.93777C9.99731 9.8728 9.91692 9.82539 9.82864 9.79997L6.25721 8.68568C6.15512 8.65391 6.06399 8.59413 5.99418 8.51315C5.92437 8.43216 5.87868 8.33321 5.86231 8.22755C5.84594 8.12189 5.85954 8.01375 5.90157 7.91543C5.9436 7.81712 6.01238 7.73257 6.10007 7.67139L9.15721 5.51425C9.23034 5.4588 9.29011 5.38767 9.33213 5.30609C9.37416 5.22451 9.39737 5.13455 9.40007 5.04282V1.29997C9.40406 1.20166 9.43336 1.10605 9.48515 1.02239C9.53693 0.938729 9.60944 0.869858 9.69565 0.822443C9.78186 0.775028 9.87885 0.750675 9.97723 0.751743C10.0756 0.75281 10.1721 0.779262 10.2572 0.828538L13.2572 3.07139C13.3334 3.12429 13.421 3.15835 13.5129 3.17077C13.6048 3.18319 13.6983 3.17361 13.7858 3.14282L17.3286 1.94282C17.4302 1.90711 17.5399 1.90085 17.6449 1.92474C17.7499 1.94863 17.846 2.00171 17.9222 2.07787C17.9983 2.15402 18.0514 2.25014 18.0753 2.35515C18.0992 2.46016 18.0929 2.56979 18.0572 2.67139Z" stroke="#F7931E" stroke-linecap="round" stroke-linejoin="round"/>
</g>
<defs>
<clipPath id="clip0_1695_58">
<rect width="20" height="20" fill="white"/>
</clipPath>
</defs>
</svg>
